<?xml version="1.0" encoding="utf-8"?>
<!-- Generator: Adobe Illustrator 24.2.3, SVG Export Plug-In . SVG Version: 6.00 Build 0)  -->
<svg version="1.1" xmlns="http://www.w3.org/2000/svg" xmlns:xlink="http://www.w3.org/1999/xlink" x="0px" y="0px"
	 viewBox="0 0 238.72 212.38" style="enable-background:new 0 0 238.72 212.38;" xml:space="preserve">
<style type="text/css">
	.st0{display:none;}
	.st1{fill:none;stroke:#515151;stroke-width:8;stroke-miterlimit:10;}
	.st2{fill:#F885A4;stroke:#515151;stroke-width:8;stroke-linejoin:bevel;stroke-miterlimit:10;}
	.st3{fill:none;stroke:#F885A4;stroke-width:8;stroke-miterlimit:10;}
	.st4{fill:none;stroke:#6F6F6F;stroke-width:8;stroke-miterlimit:10;}
	.st5{fill:#F885A4;}
	.st6{fill:#333333;}
	.st7{fill:none;}
	.st8{fill:none;stroke:#F885A4;stroke-width:5;stroke-linecap:round;stroke-miterlimit:10;}
	.st9{fill:#515151;}
	.st10{fill:none;stroke:#515151;stroke-width:3;stroke-miterlimit:10;}
	.st11{fill:#F885A4;stroke:#515151;stroke-width:8;stroke-linecap:round;stroke-linejoin:round;stroke-miterlimit:10;}
	.st12{fill:#F885A4;stroke:#515151;stroke-width:8;stroke-linecap:round;stroke-miterlimit:10;}
	.st13{fill:none;stroke:#515151;stroke-width:8;stroke-linecap:round;stroke-linejoin:bevel;stroke-miterlimit:10;}
	.st14{fill:none;stroke:#515151;stroke-width:8;stroke-linecap:round;stroke-miterlimit:10;}
	.st15{fill:none;stroke:#515151;stroke-width:5;stroke-miterlimit:10;}
	.st16{fill:none;stroke:#515151;stroke-width:4;stroke-miterlimit:10;}
	.st17{fill:#515151;stroke:#515151;stroke-width:2;stroke-miterlimit:10;}
	.st18{fill:none;stroke:#515151;stroke-miterlimit:10;}
	.st19{fill:#636363;}
</style>
<g id="Camada_1" class="st0">
</g>
<g id="Camada_2">
	<rect x="-293.28" y="-90.38" class="st0" width="868.32" height="630.72"/>
	<g>
		<g>
			<g>
				<path class="st5" d="M75.44,107.65l22.67-35.23l16.68-27.36l-0.2,58.19c-5.24,1.93-8.97,6.97-8.99,12.9
					c-0.03,7.61,6.1,13.81,13.68,13.84c7.58,0.03,13.74-6.13,13.77-13.74c0.02-5.93-3.68-10.99-8.91-12.96l0.2-58.19l16.49,27.47
					l22.43,35.39l-17.83,48.38l-52.51-0.18L75.44,107.65z"/>
				<path class="st5" d="M97.42,162.1l45.52,0.16c1.98,0.01,3.6,1.63,3.59,3.62l-0.02,5.11c-0.01,1.98-1.63,3.6-3.62,3.59
					l-45.52-0.16c-1.98-0.01-3.6-1.63-3.59-3.62l0.02-5.11C93.82,163.71,95.44,162.09,97.42,162.1z"/>
			</g>
			<path class="st5" d="M93.73,177.28l51.29,0.18c0.07,0,0.12,0.06,0.12,0.12l-0.12,34.68c0,0.07-0.06,0.12-0.12,0.12l-51.29-0.18
				c-0.07,0-0.12-0.06-0.12-0.12l0.12-34.68C93.61,177.34,93.66,177.28,93.73,177.28z"/>
		</g>
		<g>
			<rect x="108.24" y="0.23" class="st9" width="22.63" height="22.63"/>
			<g>
				<path class="st1" d="M11.78,119.01c0-59.52,48.25-107.77,107.77-107.77s107.77,48.25,107.77,107.77"/>
				<rect x="0.54" y="107.7" class="st9" width="22.63" height="22.63"/>
				<rect x="216.09" y="107.7" class="st9" width="22.63" height="22.63"/>
			</g>
			<g>
				<line class="st10" x1="11.78" y1="11.55" x2="227.32" y2="11.55"/>
				<circle class="st9" cx="11.86" cy="11.55" r="7.41"/>
				<circle class="st9" cx="227.32" cy="11.24" r="7.41"/>
			</g>
		</g>
	</g>
</g>
</svg>
