<?xml version="1.0" encoding="utf-8"?>
<!-- Generator: Adobe Illustrator 24.2.3, SVG Export Plug-In . SVG Version: 6.00 Build 0)  -->
<svg version="1.1" xmlns="http://www.w3.org/2000/svg" xmlns:xlink="http://www.w3.org/1999/xlink" x="0px" y="0px"
	 viewBox="0 0 192.96 258.12" style="enable-background:new 0 0 192.96 258.12;" xml:space="preserve">
<style type="text/css">
	.st0{display:none;}
	.st1{fill:none;stroke:#515151;stroke-width:8;stroke-miterlimit:10;}
	.st2{fill:#F885A4;stroke:#515151;stroke-width:8;stroke-linejoin:bevel;stroke-miterlimit:10;}
	.st3{fill:none;stroke:#F885A4;stroke-width:8;stroke-miterlimit:10;}
	.st4{fill:none;stroke:#6F6F6F;stroke-width:8;stroke-miterlimit:10;}
	.st5{fill:#F885A4;}
	.st6{fill:#333333;}
	.st7{fill:none;}
	.st8{fill:none;stroke:#F885A4;stroke-width:5;stroke-linecap:round;stroke-miterlimit:10;}
	.st9{fill:#515151;}
	.st10{fill:none;stroke:#515151;stroke-width:3;stroke-miterlimit:10;}
	.st11{fill:#F885A4;stroke:#515151;stroke-width:8;stroke-linecap:round;stroke-linejoin:round;stroke-miterlimit:10;}
	.st12{fill:#F885A4;stroke:#515151;stroke-width:8;stroke-linecap:round;stroke-miterlimit:10;}
	.st13{fill:none;stroke:#515151;stroke-width:8;stroke-linecap:round;stroke-linejoin:bevel;stroke-miterlimit:10;}
	.st14{fill:none;stroke:#515151;stroke-width:8;stroke-linecap:round;stroke-miterlimit:10;}
	.st15{fill:none;stroke:#515151;stroke-width:5;stroke-miterlimit:10;}
	.st16{fill:none;stroke:#515151;stroke-width:4;stroke-miterlimit:10;}
	.st17{fill:#515151;stroke:#515151;stroke-width:2;stroke-miterlimit:10;}
	.st18{fill:none;stroke:#515151;stroke-miterlimit:10;}
	.st19{fill:#636363;}
</style>
<g id="Camada_1" class="st0">
</g>
<g id="Camada_2">
	<rect x="-46.44" y="-342.54" class="st0" width="868.32" height="630.72"/>
	<g>
		<path class="st1" d="M117.73,22.37c-6.66-1.66-13.59-2.61-20.71-2.75c-24.54-0.48-46.98,8.47-63.95,23.47
			c-14.49,12.8-11.79,36.23,5.1,45.64c7.06,3.93,13.33,9.1,18.51,15.22"/>
		<path class="st1" d="M70.89,193.74c4.83,7.91,13.48,13.44,23.77,13.49c0.16,0,0.32,0,0.48,0c52.57,0,95.04-43.24,93.79-96.09
			c-0.9-38.22-25.05-71-58.72-84.7"/>
		<circle class="st1" cx="56.27" cy="58.79" r="16"/>
		<circle class="st3" cx="142.43" cy="78.99" r="18.73"/>
		<circle class="st1" cx="141.08" cy="130.13" r="18.73"/>
		<circle class="st1" cx="111.98" cy="172.56" r="18.73"/>
		<path class="st5" d="M24.98,245.17c-0.15-3.49,17.47-3.2,43.72-4.34c26.25-1.15,28.33-0.51,39.57,1.84
			c1.37,0.36,10.89-0.17,9.19,0.56c7.64,0.79,12.33,2.07,12.4,3.69c0.1,2.24-13.87,2.93-27.01,4.63c-5.73,2.29-12.13,5.84-25.7,6.44
			c-17.59,0.77-17.53-1.62-20.18-4.55c-4.67-0.77-22,1.69-22.18-2.36c-0.03-0.73,0.89-1.48,2.58-2.21
			C29.74,248.07,25.05,246.79,24.98,245.17z"/>
		<path class="st1" d="M36.71,130.13L131.45,5.87c2.62-3.43,7.97-0.27,6.23,3.68L73.9,153.83L36.71,130.13z"/>
		<path class="st1" d="M75.18,150.95c3.37,5.62,5.99,10.69,5.99,17.72c0,20.69-15.24,31.68-34.26,41.25"/>
		<path class="st5" d="M51.52,207.41c-1.16-1.62-2.37-3.34-3.66-5.17c0,0-16.49-9.05-19.86-14.13
			c-11.66-17.55-21.36-23.6-21.36-23.6c-0.15-0.07-0.3-0.14-0.45-0.22c-0.6,2.83-8.9,44.27,17.47,72.43
			C23.66,236.73,25.81,220.49,51.52,207.41z"/>
		<path class="st1" d="M6.07,164.3c0,0-9.88,43.43,17.43,72.6c0,0,2.2-16.78,29.13-29.97"/>
		<path class="st1" d="M5.94,164.94c2.15-17.55,14.51-30.47,31.73-33.25"/>
	</g>
	<line class="st1" x1="48.84" y1="119.48" x2="83.13" y2="142.01"/>
</g>
</svg>
