<?xml version="1.0" encoding="utf-8"?>
<!-- Generator: Adobe Illustrator 24.2.3, SVG Export Plug-In . SVG Version: 6.00 Build 0)  -->
<svg version="1.1" id="Camada_2" xmlns="http://www.w3.org/2000/svg" xmlns:xlink="http://www.w3.org/1999/xlink" x="0px" y="0px"
	 viewBox="0 0 171.24 255.58" style="enable-background:new 0 0 171.24 255.58;" xml:space="preserve">
<style type="text/css">
	.st0{display:none;}
	.st1{fill:none;stroke:#F885A4;stroke-width:8;stroke-miterlimit:10;}
	.st2{fill:none;stroke:#515151;stroke-width:8;stroke-miterlimit:10;}
	.st3{fill:none;stroke:#6F6F6F;stroke-width:8;stroke-miterlimit:10;}
	.st4{fill:#F885A4;}
	.st5{fill:#333333;}
	.st6{fill:none;}
	.st7{fill:none;stroke:#F885A4;stroke-width:5;stroke-linecap:round;stroke-miterlimit:10;}
	.st8{fill:#515151;}
	.st9{fill:none;stroke:#515151;stroke-width:3;stroke-miterlimit:10;}
	.st10{fill:#F885A4;stroke:#515151;stroke-width:8;stroke-linecap:round;stroke-linejoin:round;stroke-miterlimit:10;}
	.st11{fill:#F885A4;stroke:#515151;stroke-width:8;stroke-linecap:round;stroke-miterlimit:10;}
	.st12{fill:none;stroke:#515151;stroke-width:8;stroke-linecap:round;stroke-linejoin:bevel;stroke-miterlimit:10;}
	.st13{fill:none;stroke:#515151;stroke-width:8;stroke-linecap:round;stroke-miterlimit:10;}
	.st14{fill:none;stroke:#515151;stroke-width:8;stroke-linejoin:round;stroke-miterlimit:10;}
	.st15{fill:none;stroke:#F885A4;stroke-width:8;stroke-linejoin:round;stroke-miterlimit:10;}
	.st16{fill:none;stroke:#515151;stroke-miterlimit:10;}
	.st17{fill:none;stroke:#515151;stroke-width:4;stroke-miterlimit:10;}
	.st18{fill:#666666;}
	.st19{display:inline;fill:none;stroke:#515151;stroke-width:8;stroke-linecap:round;stroke-miterlimit:10;}
	.st20{display:inline;fill:#515151;}
	.st21{display:inline;fill:#666666;}
	.st22{display:inline;fill:none;stroke:#515151;stroke-width:8;stroke-miterlimit:10;}
	.st23{display:inline;fill:none;stroke:#F885A4;stroke-width:8;stroke-miterlimit:10;}
	.st24{display:inline;fill:#F885A4;}
</style>
<rect x="-613.08" y="-47.18" class="st0" width="846.72" height="630.72"/>
<g>
	<g id="regua">
		<polyline class="st2" points="76.29,206.03 66.4,229.98 39.34,218.81 63.08,161.28 		"/>
		<line class="st2" x1="88.92" y1="175.42" x2="84.55" y2="185.99"/>
		<polyline class="st2" points="97.46,77.97 127.23,5.83 154.29,17 109.11,126.5 		"/>
		<line class="st2" x1="73.27" y1="136.59" x2="82.32" y2="114.66"/>
		<line class="st16" x1="148.8" y1="30.32" x2="135.26" y2="24.74"/>
		<line class="st16" x1="144.77" y1="40.08" x2="131.24" y2="34.5"/>
		<line class="st16" x1="140.74" y1="49.84" x2="127.21" y2="44.26"/>
		<line class="st16" x1="136.71" y1="59.61" x2="123.18" y2="54.02"/>
		<line class="st16" x1="132.68" y1="69.37" x2="119.15" y2="63.78"/>
		<line class="st16" x1="128.66" y1="79.13" x2="115.12" y2="73.54"/>
		<line class="st16" x1="124.63" y1="88.89" x2="111.09" y2="83.3"/>
		<line class="st16" x1="120.6" y1="98.65" x2="107.07" y2="93.07"/>
		<line class="st16" x1="116.57" y1="108.41" x2="103.04" y2="102.83"/>
		<line class="st16" x1="89.02" y1="165.58" x2="75.48" y2="160"/>
		<line class="st16" x1="73.55" y1="193.47" x2="66.78" y2="190.68"/>
		<line class="st16" x1="76.29" y1="206.03" x2="62.75" y2="200.44"/>
		<line class="st16" x1="72.26" y1="215.79" x2="58.73" y2="210.2"/>
	</g>
	<g>
		<path class="st8" d="M55.6,6.61l0.28,5.15l-0.71-5.05l-1.63,0.37l-2.21,10.31c0,0-1.44-4.34-3.03-9.12l-9.7,2.2l0.64,7.22
			c0,0-1.46-2.96-3.26-6.62l-4.94,1.12l1.98,10.15l-2.83-9.96l-4.87,1.11l1.87,11.78c0,0-2.67-5.66-5.21-11.02l-4.45,1.01l0.74,3.8
			l-1.06-3.73l-3.28,0.74l11.42,26.97l34.53-7.85L58.53,5.95L55.6,6.61z"/>
		<g>
			<path class="st4" d="M23.56,30.91c9-4.75,15.2-8.62,15.2-8.62l3.42-5.84l9.08,0.92c-0.3-0.91-1.57-4.74-2.96-8.92l-9.7,2.2
				l0.64,7.22c0,0-1.46-2.96-3.26-6.62l-4.94,1.12l1.98,10.15l-2.83-9.96l-4.87,1.11l1.87,11.78c0,0-2.67-5.66-5.21-11.02
				l-4.45,1.01l0.74,3.8l-1.06-3.73l-3.28,0.74l6.81,16.09C21.45,32.03,22.35,31.55,23.56,30.91z"/>
			<polygon class="st4" points="58.53,6.13 55.6,6.8 55.89,11.95 55.18,6.89 53.55,7.27 51.37,17.39 59.09,18.17 			"/>
		</g>
		<path class="st2" d="M83.18,217.58L83.18,217.58c-2.17,0.49-4.41-1.03-5.11-3.48L30.85,47.72l26.11-5.93l29.32,170.44
			C86.71,214.74,85.34,217.08,83.18,217.58z"/>
		<line class="st17" x1="34.07" y1="59.06" x2="58.96" y2="53.41"/>
	</g>
	<g id="lapis">
		<path class="st1" d="M83.9,132.69l-4.08-34.74l25.58-3.01l12.06,102.62c1,8.5-3.92,16.06-10.98,16.89h0
			c-7.06,0.83-13.6-5.39-14.6-13.89l-3.98-33.91L83.9,132.69z"/>
		<path class="st15" d="M92.06,66.96l13.02,25.27L79.5,95.24l6.81-27.6C87.12,64.34,90.5,63.94,92.06,66.96z"/>
		<line class="st1" x1="116.53" y1="188.32" x2="90.79" y2="191.35"/>
		<line class="st1" x1="104.48" y1="189.74" x2="94.94" y2="108.52"/>
	</g>
	<g id="pote">
		<path class="st13" d="M152.78,175.58v53.43c0,6.7-6.31,12.14-14.1,12.14H32.44c-7.79,0-14.1-5.43-14.1-12.14v-53.43"/>
		<path class="st8" d="M144.57,138.63H26.56c-3.96,0-7.17-3.21-7.17-7.17v-3.91c0-3.96,3.21-7.17,7.17-7.17h118.01
			c3.96,0,7.17,3.21,7.17,7.17v3.91C151.74,135.42,148.53,138.63,144.57,138.63z"/>
		<path class="st18" d="M140.18,122.32H37.92c-4.6,0-4.39,3.1,0,3.1h102.27c4.39,0,8.32,6.3,8.32,6.13v-2.06
			C148.5,125.52,144.78,122.32,140.18,122.32z"/>
		<path class="st2" d="M149.66,251.23H21.47c-9.4,0-17.02-7.62-17.02-17.02v-72c0-9.4,7.62-17.02,17.02-17.02h128.19
			c9.4,0,17.02,7.62,17.02,17.02v72C166.68,243.61,159.06,251.23,149.66,251.23z"/>
	</g>
</g>
<g id="pote_1_" class="st0">
	<path class="st19" d="M132.06,175.58v53.43c0,6.7-5.43,12.14-12.14,12.14H28.45c-6.7,0-12.14-5.43-12.14-12.14v-53.43"/>
	<path class="st20" d="M124,138.63H24.38c-3.96,0-7.17-3.21-7.17-7.17v-3.91c0-3.96,3.21-7.17,7.17-7.17H124
		c3.96,0,7.17,3.21,7.17,7.17v3.91C131.16,135.42,127.95,138.63,124,138.63z"/>
	<path class="st21" d="M121.21,122.32H33.17c-3.96,0-3.78,3.1,0,3.1h88.05c3.78,0,7.17,6.3,7.17,6.13v-2.06
		C128.38,125.52,125.17,122.32,121.21,122.32z"/>
	<path class="st22" d="M127.01,251.23H21.37c-9.4,0-17.02-7.62-17.02-17.02v-72c0-9.4,7.62-17.02,17.02-17.02h105.63
		c9.4,0,17.02,7.62,17.02,17.02v72C144.03,243.61,136.41,251.23,127.01,251.23z"/>
</g>
<g class="st0">
	<path class="st23" d="M183.81,211.97v34.37c0,2.17-1.76,3.94-3.94,3.94h-58.79c-2.17,0-3.94-1.76-3.94-3.94v-34.37
		c0-2.17,1.76-3.94,3.94-3.94h58.79C182.05,208.03,183.81,209.8,183.81,211.97z"/>
	
		<rect x="134.84" y="206.44" transform="matrix(6.123234e-17 -1 1 6.123234e-17 -73.1927 385.1133)" class="st24" width="42.24" height="45.42"/>
</g>
</svg>
