<?xml version="1.0" encoding="utf-8"?>
<!-- Generator: Adobe Illustrator 24.2.3, SVG Export Plug-In . SVG Version: 6.00 Build 0)  -->
<svg version="1.1" xmlns="http://www.w3.org/2000/svg" xmlns:xlink="http://www.w3.org/1999/xlink" x="0px" y="0px"
	 viewBox="0 0 234.21 258.42" style="enable-background:new 0 0 234.21 258.42;" xml:space="preserve">
<style type="text/css">
	.st0{display:none;}
	.st1{fill:none;stroke:#515151;stroke-width:8;stroke-miterlimit:10;}
	.st2{fill:#F885A4;stroke:#515151;stroke-width:8;stroke-linejoin:bevel;stroke-miterlimit:10;}
	.st3{fill:none;stroke:#F885A4;stroke-width:8;stroke-miterlimit:10;}
	.st4{fill:none;stroke:#6F6F6F;stroke-width:8;stroke-miterlimit:10;}
	.st5{fill:#F885A4;}
	.st6{fill:#333333;}
	.st7{fill:none;}
	.st8{fill:none;stroke:#F885A4;stroke-width:5;stroke-linecap:round;stroke-miterlimit:10;}
	.st9{fill:#515151;}
	.st10{fill:none;stroke:#515151;stroke-width:3;stroke-miterlimit:10;}
	.st11{fill:#F885A4;stroke:#515151;stroke-width:8;stroke-linecap:round;stroke-linejoin:round;stroke-miterlimit:10;}
	.st12{fill:#F885A4;stroke:#515151;stroke-width:8;stroke-linecap:round;stroke-miterlimit:10;}
	.st13{fill:none;stroke:#515151;stroke-width:8;stroke-linecap:round;stroke-linejoin:bevel;stroke-miterlimit:10;}
	.st14{fill:none;stroke:#515151;stroke-width:8;stroke-linecap:round;stroke-miterlimit:10;}
	.st15{fill:none;stroke:#515151;stroke-width:5;stroke-miterlimit:10;}
	.st16{fill:none;stroke:#515151;stroke-width:4;stroke-miterlimit:10;}
	.st17{fill:#515151;stroke:#515151;stroke-width:2;stroke-miterlimit:10;}
	.st18{fill:none;stroke:#515151;stroke-miterlimit:10;}
	.st19{fill:#636363;}
</style>
<g id="Camada_1" class="st0">
</g>
<g id="Camada_2">
	<rect x="-293.28" y="-342.24" class="st0" width="868.32" height="630.72"/>
	<g>
		<g>
			<rect x="4" y="192.05" class="st1" width="62.97" height="62.37"/>
			<path class="st1" d="M28.62,192.08c0,13.47-11.02,24.39-24.62,24.39"/>
			<path class="st1" d="M66.97,216.43c-13.6,0-24.62-10.92-24.62-24.39"/>
			<path class="st1" d="M42.35,254.42c0-13.47,11.02-24.39,24.62-24.39"/>
			<path class="st1" d="M4.58,230.03c13.6,0,24.62,10.92,24.62,24.39"/>
		</g>
		<g>
			<rect x="66.97" y="192.05" class="st1" width="62.97" height="62.37"/>
			<path class="st1" d="M91.6,192.08c0,13.47-11.02,24.39-24.62,24.39"/>
			<path class="st1" d="M129.95,216.43c-13.6,0-24.62-10.92-24.62-24.39"/>
			<path class="st1" d="M105.32,254.42c0-13.47,11.02-24.39,24.62-24.39"/>
			<path class="st1" d="M67.55,230.03c13.6,0,24.62,10.92,24.62,24.39"/>
		</g>
		<g>
			<rect x="4" y="129.66" class="st1" width="62.97" height="62.37"/>
			<path class="st1" d="M28.62,129.69c0,13.47-11.02,24.39-24.62,24.39"/>
			<path class="st1" d="M66.97,154.05c-13.6,0-24.62-10.92-24.62-24.39"/>
			<path class="st1" d="M42.35,192.03c0-13.47,11.02-24.39,24.62-24.39"/>
			<path class="st1" d="M4.58,167.64c13.6,0,24.62,10.92,24.62,24.39"/>
		</g>
		<g>
			<rect x="4" y="65.6" class="st1" width="62.97" height="62.37"/>
			<path class="st1" d="M28.62,65.63C28.62,79.1,17.6,90.02,4,90.02"/>
			<path class="st1" d="M66.97,89.99c-13.6,0-24.62-10.92-24.62-24.39"/>
			<path class="st1" d="M42.35,127.97c0-13.47,11.02-24.39,24.62-24.39"/>
			<path class="st1" d="M4.58,103.58c13.6,0,24.62,10.92,24.62,24.39"/>
		</g>
		<g>
			<rect x="96.24" y="3.72" class="st3" width="62.97" height="62.37"/>
			<path class="st3" d="M120.86,3.75c0,13.47-11.02,24.39-24.62,24.39"/>
			<path class="st3" d="M159.21,28.11c-13.6,0-24.62-10.92-24.62-24.39"/>
			<path class="st3" d="M134.59,66.09c0-13.47,11.02-24.39,24.62-24.39"/>
			<path class="st3" d="M96.82,41.7c13.6,0,24.62,10.92,24.62,24.39"/>
		</g>
		<g>
			<rect x="167.17" y="121.94" class="st3" width="62.97" height="62.37"/>
			<path class="st3" d="M191.8,121.97c0,13.47-11.02,24.39-24.62,24.39"/>
			<path class="st3" d="M230.15,146.33c-13.6,0-24.62-10.92-24.62-24.39"/>
			<path class="st3" d="M205.52,184.32c0-13.47,11.02-24.39,24.62-24.39"/>
			<path class="st3" d="M167.75,159.93c13.6,0,24.62,10.92,24.62,24.39"/>
		</g>
		<g>
			<rect x="66.97" y="129.66" class="st1" width="62.97" height="62.37"/>
			<path class="st1" d="M91.6,129.69c0,13.47-11.02,24.39-24.62,24.39"/>
			<path class="st1" d="M129.95,154.05c-13.6,0-24.62-10.92-24.62-24.39"/>
			<path class="st1" d="M105.32,192.03c0-13.47,11.02-24.39,24.62-24.39"/>
			<path class="st1" d="M67.55,167.64c13.6,0,24.62,10.92,24.62,24.39"/>
		</g>
	</g>
</g>
</svg>
