<?xml version="1.0" encoding="utf-8"?>
<!-- Generator: Adobe Illustrator 24.2.3, SVG Export Plug-In . SVG Version: 6.00 Build 0)  -->
<svg version="1.1" id="Camada_1" xmlns="http://www.w3.org/2000/svg" xmlns:xlink="http://www.w3.org/1999/xlink" x="0px" y="0px"
	 viewBox="0 0 256 256" style="enable-background:new 0 0 256 256;" xml:space="preserve">
<style type="text/css">
	.st0{fill:#515151;stroke:#515151;stroke-width:0.5;stroke-miterlimit:10;}
	.st1{fill:#515151;stroke:#515151;stroke-width:0.75;stroke-miterlimit:10;}
	.st2{fill:#BF1666;}
</style>
<ellipse class="st0" cx="100.89" cy="109.99" rx="8.52" ry="7.68"/>
<ellipse class="st0" cx="58.59" cy="109.99" rx="8.52" ry="7.68"/>
<path class="st1" d="M203,232.01c-1.45-5.82-10.2-14.29-21.06-22.51c-1.36-1.03-2.73-2.07-4.13-3.06c-1.4-1.03-2.68,0.21-3.68,1.61
	c-0.54,0.74-0.87,1.36-0.87,1.94c0,0.54,0.29,1.03,0.95,1.49c1.45,1.03,2.81,2.06,4.17,3.06c9.38,7.06,16.77,14.08,17.92,18.79
	c0.12,0.54,0.5,1.53,0.87,1.98c1.16,1.4,4.42,0.83,5.41-0.33C203.16,234.28,203.24,233.04,203,232.01z M173.76,91.01
	c-2.35-1.78-5.95-2.06-10.7-0.95c-0.58-9.54-3.43-28.13-16.89-41.26c-15.4-14.99-33.49-21.6-55.26-20.15
	c-4.09,0.25-18.63,1.9-34.36,12.1c-14.87,9.62-25.36,23.71-30.31,40.72c-10.49,35.68,5.29,73.68,10.37,84.5
	c0.78,1.65,2.6,2.73,4.58,2.73c0.33,0,0.66,0,0.99-0.08c2.31-0.37,4.01-2.19,4.05-4.34c0.08-4.91,0.33-9.54,0.66-13.88
	c5.86,10.57,18.58,20.61,38.99,20.61c1.32,0,2.64-0.04,4.01-0.12c0.58,1.57,0.99,3.22,1.28,4.87c-0.83-0.5-1.69-0.95-2.6-1.28
	c-2.35-0.91-5.04-0.62-7.1,0.74c-2.27,1.57-3.47,4.05-3.18,6.61c0.12,1.12,0.17,2.27,0.29,3.68c0.04,0.7,0.08,1.45,0.12,2.23
	c0.12,1.65-0.87,3.22-2.52,3.92c-11.52,5.12-31.8,15.65-47.04,25.69c-7.43,4.91-14.54,9.13-17.02,13.71
	c-0.87,1.61-0.41,3.26,0.37,3.84c0.95,0.74,4.25-0.08,5.41-0.83c2.27-1.45,4.5-4.75,7.85-7.31c15.74-12.06,44.98-25.85,53.4-29.61
	c4.13-1.82,6.65-5.7,6.36-9.83c-0.04-0.78-0.33-4.87-0.45-6.07c-0.04-0.41,0.08-0.83,0.45-1.11c0.17-0.04,0.33-0.04,0.5,0
	c2.73,1.03,9.25,5.82,8.43,14.45c-0.17,0.99-0.58,1.94-1.28,2.73c-3.1,4.09-7.19,21.64-10.16,33.41c-0.54,2.15,1.07,4.17,3.26,4.17
	c1.53,0,2.85-1.03,3.26-2.48c2.77-10.41,6.48-28,9.29-31.72c2.02-2.73,2.48-5.08,2.48-5.7c0.04-0.29,0.08-0.58,0.12-0.87
	c0.66-6.48,3.84-11.89,9.17-15.65c5.95-4.09,13.46-5.82,20.86-4.83c0.41,0.04,0.7,0.37,0.66,0.74c0,0.04,0,0.04,0,0.04
	c0,0.12-0.5,3.14-0.87,6.24c-0.41,3.96,2.02,7.68,6.11,9.21c3.06,1.16,7.68,3.43,13.01,6.4c1.49,0.83,3.06,1.73,4.63,2.68
	c1.4,0.83,2.64,0,3.59-1.36c0.5-0.7,0.78-1.45,0.78-2.15c0-0.74-0.33-1.4-1.16-1.86c-1.45-0.87-2.85-1.65-4.25-2.44
	c-5.62-3.18-10.57-5.62-14.04-6.9c-1.24-0.45-2.02-1.65-1.9-2.89c0.37-2.97,0.83-5.99,0.83-5.99c0.62-3.72-2.23-7.19-6.32-7.76
	c-1.45-0.17-2.89-0.29-4.3-0.33c-0.95-4.42-1.45-8.47-1.65-10.53c0.95-0.87,1.86-1.78,2.68-2.77c2.35-2.89,4.21-6.07,5.53-9.46
	c0.45-1.11,0.78-2.19,1.07-3.14c0.95,0.41,1.98,0.74,3.01,0.95c1.36,0.29,2.77,0.41,4.17,0.41c9.04,0,17.76-5.78,21.85-14.91
	c0.25-0.54,0.66-1.45,1.2-2.56C176.44,103.44,178.46,94.48,173.76,91.01z M39.7,156.14c-6.11-15.24-15.12-45.06-6.9-73.1
	c4.67-15.86,13.96-28.37,27.71-37.29C71.87,38.4,83.93,35.26,91.4,34.76c1.82-0.12,3.59-0.17,5.33-0.17
	c17.39,0,31.64,5.91,44.44,18.38c3.96,3.96,7.15,8.51,9.38,13.42c2.56,4.91,4.13,12.51,4.17,12.76v0.04
	c0.95,4.3,1.49,8.67,1.61,13.05c-0.74,0.33-1.53,0.66-2.35,0.99c-2.23,1.03-4.54,2.19-6.81,3.47l-5.78,3.47
	c-3.35,2.15-6.53,4.5-9.5,7.02c-0.04,0.04-0.12,0.08-0.21,0.04c-3.47-2.48-6.69-7.6-5.33-14.62c0.12-0.62,0.74-6.11,0.74-6.11
	c0.17-9.62-4.83-14.37-10.2-16.73l-6.81-4.09c-0.66-0.87-1.28-1.82-1.94-2.81c-1.98-3.1-4.42-6.94-9.83-8.18
	c-1.82-0.41-3.68,0.62-4.13,2.23c-0.08,0.25-0.12,0.5-0.12,0.78c0,10.53-5.78,13.92-14.58,19c-7.97,4.63-17.8,10.41-25.73,23.25
	C45.56,113.23,40.94,131.65,39.7,156.14z M166.65,107.24c-2.19,5.78-7.85,17.72-8.14,18.34c-2.93,6.61-10.12,12.47-18.13,10.78
	c-1.78-0.37-3.01-1.16-4.83-2.48c-1.49-1.03-3.63-0.83-4.79,0.54c-0.41,0.45-0.66,0.99-0.7,1.61c-0.33,2.19-0.91,4.38-1.73,6.44
	c-1.12,2.81-2.64,5.45-4.58,7.89c-0.91,1.12-4.17,4.25-6.07,5.29c-1.65,0.87-2.19,2.73-1.24,4.21c0.74,1.16,2.31,1.78,3.8,1.4
	c0.25,1.9,0.62,4.17,1.07,6.53c-5.45,0.87-10.57,2.89-14.95,5.95c-3.26,2.27-5.99,5.16-7.97,8.43c0.12-4.09-0.45-8.22-1.73-12.18
	c3.18-0.62,6.32-1.45,9.38-2.48c1.78-0.62,2.64-2.35,2.02-3.96c-0.66-1.61-2.64-2.4-4.42-1.82c-3.84,1.32-7.85,2.27-11.94,2.89
	c-30.11,2.93-38.95-16.69-40.43-20.69c-1.12-3.3-1.9-6.73-2.31-10.2c6.36-35.6,22.1-44.77,34.2-51.83
	c7.81-4.5,15.24-8.84,17.22-18.67c0.58,0.74,1.2,1.65,1.86,2.73c2.02,3.14,4.54,7.06,10.04,8.71c4.38,1.36,9.87,4.54,7.43,16.73
	c-1.98,9.79,2.73,17.1,7.76,20.69c2.77,1.86,6.61,1.69,9.09-0.41c6.11-5.16,13.01-9.5,20.44-12.93c7.72-3.43,11.36-3.35,12.27-3.06
	C169.42,96.34,169.71,99.02,166.65,107.24z"/>
<g>
	<g>
		<path class="st2" d="M229.25,144.87l-36.97,52.63l-3.38,4.8l-8.18,11.64c-0.35,0.51-0.83,0.87-1.34,1.18l-19.16,10.54
			c-0.63,0.28-1.26,0.47-1.89,0.59c-1.85,0.31-3.58-0.08-5.03-1.1c-1.93-1.38-2.99-3.62-2.83-5.98l3.54-21.91
			c0.08-0.55,0.31-1.14,0.67-1.65l7.51-10.7l3.42-4.88l37.21-52.91c0.04,0,0.04-0.04,0.04-0.08l0.35-0.47
			c1.26-1.77,3.7-2.2,5.47-0.94c1.77,1.26,2.2,3.7,0.98,5.51l-2.24,3.19l-34.97,49.68l-3.46,4.92l-5.62,8.02l-1.73,2.44l-0.87,5.31
			l-2.08,12.86l11.41-6.29l4.68-2.6l1.73-2.48l5.98-8.5l3.42-4.84l34.61-49.29l2.28-3.23c1.26-1.77,3.7-2.2,5.47-0.94
			C230.08,140.66,230.47,143.1,229.25,144.87z"/>
	</g>
	<g>
		<path class="st2" d="M178.16,215.54c-0.99,0.17-2.05-0.03-2.94-0.66l-19.6-13.79c-1.78-1.25-2.2-3.7-0.95-5.48
			c1.25-1.78,3.7-2.2,5.48-0.95l19.6,13.79c1.78,1.25,2.2,3.7,0.95,5.48C180.07,214.81,179.15,215.36,178.16,215.54z"/>
	</g>
	<g>
		<path class="st2" d="M226.7,146.5c-0.99,0.17-2.05-0.03-2.94-0.66l-19.63-13.81c-1.78-1.25-2.2-3.7-0.95-5.48l6.46-9.18
			c5.08-7.22,15.06-8.99,22.25-3.93c3.49,2.45,5.8,6.12,6.52,10.33c0.72,4.2-0.24,8.44-2.7,11.94l-6.46,9.18
			C228.62,145.77,227.69,146.32,226.7,146.5z M211.87,127.85l13.2,9.29l4.2-5.97c1.26-1.79,1.75-3.95,1.38-6.09
			c-0.36-2.13-1.53-3.99-3.29-5.22c-3.64-2.56-8.7-1.65-11.29,2.03L211.87,127.85z"/>
	</g>
	<g>
		<path class="st2" d="M219.42,137.99l-2.28,3.23l-34.65,49.29l-2.2,3.11c-0.47,0.67-1.06,1.14-1.77,1.38
			c-0.24,0.12-0.47,0.2-0.75,0.24c-1.02,0.16-2.05-0.04-2.95-0.67c-1.06-0.75-1.61-1.85-1.61-3.03c-0.08-0.83,0.16-1.69,0.67-2.44
			l2.05-2.91l34.81-49.48l2.28-3.23c1.22-1.77,3.7-2.2,5.47-0.98C220.25,133.74,220.68,136.22,219.42,137.99z"/>
	</g>
</g>
</svg>
