<?xml version="1.0" encoding="utf-8"?>
<!-- Generator: Adobe Illustrator 24.2.3, SVG Export Plug-In . SVG Version: 6.00 Build 0)  -->
<svg version="1.1" id="Camada_1" xmlns="http://www.w3.org/2000/svg" xmlns:xlink="http://www.w3.org/1999/xlink" x="0px" y="0px"
	 viewBox="0 0 64 64" style="enable-background:new 0 0 64 64;" xml:space="preserve">
<style type="text/css">
	.st0{fill:none;stroke:#515151;stroke-width:2.5;stroke-linecap:round;stroke-miterlimit:10;}
	.st1{fill:none;stroke:#515151;stroke-width:2.5;stroke-linecap:round;stroke-linejoin:round;stroke-miterlimit:10;}
	.st2{fill:#515151;}
	.st3{fill:#BF1666;}
	.st4{fill:none;}
	.st5{fill:#6F6F6F;}
	.st6{fill:none;stroke:#6F6F6F;stroke-width:0.5;stroke-linecap:round;stroke-linejoin:round;stroke-miterlimit:10;}
</style>
<path class="st0" d="M50.88,51.19c0,0,9.2,6.1,9.2,11.73"/>
<path class="st1" d="M42.8,28.86c0,0,0.32,10.68,2.24,16.72"/>
<path class="st0" d="M18.5,20.46c0,0,20.55-0.09,19.4-6.89"/>
<path class="st0" d="M8.49,14.83c0,0,30.61,2.02,26.32-6.63"/>
<path class="st0" d="M17.14,26.19c0,0,1.73-3.16,6.48-1.97"/>
<path class="st0" d="M6,28.68c0,0,3.04-2.4,5.32-1.22"/>
<path class="st1" d="M8.53,33.93c0,0,4.47,15.48,2.01,20.38"/>
<line class="st0" x1="30.96" y1="37.19" x2="30.96" y2="41.24"/>
<path class="st0" d="M20.2,48.56l-0.06-4.18c0,0,1.27-2.33,5.8,4.74"/>
<path class="st0" d="M20.38,58.56c0,0,1.52-4.71,4.21-7.54c1-1.05,1.71-2.35,2.03-3.77c0.53-2.33,2.36-5.89,8.35-7.98
	c1.34-0.47,2.75,0.56,2.76,1.98c0.01,1.3,0.04,1.86,0.03,2.62c0,0.75,0.33,1.46,0.92,1.94c1.46,1.18,4.97,2.06,4.97,2.06"/>
<path class="st0" d="M34.81,32.38c0,0-2.75,5.55-10.34,9.26c-3.75,1.83-8.26,1.08-11.2-1.88c-3.13-3.17-6.83-7.88-7.8-13.16"/>
<path class="st1" d="M28.22,22.07C13,21.08,8.49,14.83,8.49,14.83C3.99,21.58,5.47,26.6,5.47,26.6s-8.7-9.88,5.73-20.14
	c0,0,19.06-14.78,27.88,10.07"/>
<path class="st0" d="M5.47,62.92c0,0,2.6-10.81,14.73-14.36"/>
<path class="st1" d="M34.81,32.38c7.98,2.88,10.99-9.94,12.13-15.82c0.26-1.33-0.87-2.04-2.07-1.6c-1.87,0.68-4.7,2.32-6.22,3.32
	c-2.12,1.4-4.18,2.84-5.27,3.92l-0.58,3.4l-4.58-3.52"/>
<ellipse class="st2" cx="10.76" cy="28.19" rx="2.17" ry="1.95"/>
<ellipse class="st2" cx="22.52" cy="25.19" rx="2.17" ry="1.95"/>
<g>
	<g>
		<path class="st3" d="M57.69,41.49l-9.4,13.38l-0.86,1.22l-2.08,2.96c-0.09,0.13-0.21,0.22-0.34,0.3l-4.87,2.68
			c-0.16,0.07-0.32,0.12-0.48,0.15c-0.47,0.08-0.91-0.02-1.28-0.28c-0.49-0.35-0.76-0.92-0.72-1.52l0.9-5.57
			c0.02-0.14,0.08-0.29,0.17-0.42l1.91-2.72l0.87-1.24l9.46-13.45c0.01,0,0.01-0.01,0.01-0.02l0.09-0.12
			c0.32-0.45,0.94-0.56,1.39-0.24s0.56,0.94,0.25,1.4l-0.57,0.81l-8.89,12.63l-0.88,1.25l-1.43,2.04l-0.44,0.62l-0.22,1.35
			l-0.53,3.27l2.9-1.6l1.19-0.66l0.44-0.63l1.52-2.16l0.87-1.23l8.8-12.53l0.58-0.82c0.32-0.45,0.94-0.56,1.39-0.24
			C57.9,40.42,58,41.04,57.69,41.49z"/>
	</g>
	<g>
		<path class="st3" d="M44.7,59.46c-0.25,0.04-0.52-0.01-0.75-0.17l-4.98-3.51c-0.45-0.32-0.56-0.94-0.24-1.39s0.94-0.56,1.39-0.24
			l4.98,3.51c0.45,0.32,0.56,0.94,0.24,1.39C45.19,59.27,44.95,59.42,44.7,59.46z"/>
	</g>
	<g>
		<path class="st3" d="M57.04,41.91c-0.25,0.04-0.52-0.01-0.75-0.17l-4.99-3.51c-0.45-0.32-0.56-0.94-0.24-1.39l1.64-2.33
			c1.29-1.84,3.83-2.29,5.66-1c0.89,0.62,1.48,1.56,1.66,2.63c0.18,1.07-0.06,2.15-0.69,3.03l-1.64,2.33
			C57.53,41.72,57.3,41.86,57.04,41.91z M53.27,37.17l3.35,2.36l1.07-1.52c0.32-0.45,0.44-1,0.35-1.55
			c-0.09-0.54-0.39-1.01-0.84-1.33c-0.92-0.65-2.21-0.42-2.87,0.52L53.27,37.17z"/>
	</g>
	<g>
		<path class="st3" d="M55.19,39.74l-0.58,0.82L45.8,53.09l-0.56,0.79c-0.12,0.17-0.27,0.29-0.45,0.35
			c-0.06,0.03-0.12,0.05-0.19,0.06c-0.26,0.04-0.52-0.01-0.75-0.17c-0.27-0.19-0.41-0.47-0.41-0.77c-0.02-0.21,0.04-0.43,0.17-0.62
			l0.52-0.74l8.85-12.58l0.58-0.82c0.31-0.45,0.94-0.56,1.39-0.25C55.4,38.66,55.51,39.29,55.19,39.74z"/>
	</g>
</g>
<g>
	<path class="st5" d="M12.18,15.93c3.98,0.16,7.99,0.11,11.95-0.27c1.97-0.2,3.94-0.49,5.83-1c0.94-0.26,1.86-0.57,2.69-1
		c0.83-0.42,1.58-0.98,1.98-1.65l0.01-0.02c0.2-0.33,0.62-0.43,0.95-0.24c0.33,0.2,0.43,0.62,0.24,0.95c0,0.01-0.01,0.02-0.02,0.02
		c-0.68,1.03-1.66,1.64-2.61,2.09c-0.97,0.45-1.97,0.74-2.97,0.98c-2,0.46-4.02,0.68-6.03,0.81c-4.03,0.24-8.05,0.14-12.06-0.17
		c-0.14-0.01-0.24-0.13-0.23-0.27C11.92,16.03,12.04,15.93,12.18,15.93L12.18,15.93z"/>
</g>
<g>
	<path class="st5" d="M24.4,20.55c1.22-0.13,2.45-0.24,3.66-0.43c1.21-0.16,2.42-0.36,3.6-0.62c1.17-0.27,2.34-0.57,3.38-1.05
		c0.52-0.23,1.01-0.51,1.39-0.84c0.2-0.16,0.36-0.34,0.48-0.52c0.08-0.09,0.1-0.19,0.16-0.28c0.02-0.11,0.1-0.15,0.63-0.17l0.08,0
		c0.15-0.01,0.29,0.04,0.41,0.11c0.43,0.27,0.44,0.54,0.33,0.71c-0.1,0.18-0.18,0.38-0.3,0.53c-0.23,0.33-0.49,0.61-0.78,0.84
		c-0.57,0.47-1.18,0.79-1.79,1.05c-1.24,0.49-2.49,0.79-3.75,0.98c-1.25,0.2-2.51,0.29-3.76,0.33c-1.26,0.01-2.5,0.01-3.75-0.12
		c-0.14-0.01-0.24-0.14-0.22-0.27C24.19,20.65,24.28,20.56,24.4,20.55L24.4,20.55z"/>
</g>
<path class="st6" d="M23.04,24.24c0,0,0.96,0.99,0.42,1.65"/>
<path class="st6" d="M11.29,27.71c0,0,0.96,0.99,0.42,1.65"/>
</svg>
