<?xml version="1.0" encoding="utf-8"?>
<!-- Generator: Adobe Illustrator 24.2.3, SVG Export Plug-In . SVG Version: 6.00 Build 0)  -->
<svg version="1.1" id="Camada_1" xmlns="http://www.w3.org/2000/svg" xmlns:xlink="http://www.w3.org/1999/xlink" x="0px" y="0px"
	 viewBox="0 0 256 256" style="enable-background:new 0 0 256 256;" xml:space="preserve">
<g>
	<path d="M73.33,82.5c-2.1,0.01-3.81-1.51-3.83-3.4c-0.01-1.33,0.83-2.55,2.17-3.12c6.14-2.23,12.96-2.39,19.22-0.46
		c1.99,0.61,3.05,2.55,2.38,4.34c-0.67,1.79-2.83,2.75-4.82,2.15c-4.41-1.39-9.23-1.33-13.59,0.18C74.39,82.4,73.86,82.5,73.33,82.5
		z"/>
	<path d="M136.65,81.78c-0.48,0-0.96-0.08-1.41-0.25c-3.61-1.3-10.26-1.71-15.19-0.09c-1.97,0.65-4.15-0.27-4.87-2.05
		c-0.72-1.78,0.3-3.74,2.27-4.39c6.21-2.03,14.67-1.96,20.58,0.17c1.95,0.7,2.89,2.7,2.11,4.45c-0.58,1.3-1.97,2.15-3.52,2.15
		L136.65,81.78z"/>
	<path d="M136.65,96.88c-0.48,0-0.96-0.08-1.41-0.25c-3.61-1.3-10.26-1.71-15.19-0.09c-1.97,0.65-4.15-0.27-4.87-2.05
		c-0.72-1.78,0.3-3.74,2.27-4.39c6.21-2.03,14.67-1.96,20.58,0.17c1.95,0.7,2.89,2.7,2.11,4.45c-0.58,1.3-1.97,2.15-3.52,2.15
		L136.65,96.88z"/>
	<path d="M88.94,98.87c-0.48,0-0.96-0.08-1.41-0.25c-3.61-1.3-10.26-1.71-15.19-0.09c-1.94,0.73-4.16-0.1-4.96-1.84
		c-0.81-1.75,0.11-3.75,2.05-4.48c0.12-0.04,0.24-0.08,0.36-0.12c6.21-2.03,14.67-1.97,20.57,0.16c1.95,0.7,2.91,2.68,2.14,4.44
		C91.91,98.02,90.5,98.88,88.94,98.87z"/>
	<path d="M106.02,134.26h-0.77c-5.01-0.17-9.35-1.99-11.92-5c-1.28-1.5-0.97-3.65,0.69-4.8c1.66-1.15,4.05-0.87,5.32,0.62
		c1.17,1.37,3.49,2.24,6.18,2.33c3.75,0.14,7.38-1.2,9.95-3.65c1.36-1.44,3.76-1.61,5.35-0.38c1.59,1.23,1.78,3.39,0.42,4.83
		c-0.04,0.04-0.08,0.08-0.12,0.12C117.25,132.14,111.76,134.29,106.02,134.26z"/>
	<path d="M172.21,116.57c-2.1,0-3.8-1.53-3.8-3.42c0-0.24,0.03-0.48,0.08-0.71c1.34-5.67,7.19-8.64,11.86-8.14
		c2.09,0.17,3.63,1.83,3.45,3.71c-0.18,1.88-2.03,3.28-4.12,3.11c-0.08-0.01-0.15-0.01-0.23-0.02c-1.74,0.1-3.19,1.23-3.54,2.77
		C175.55,115.44,174,116.57,172.21,116.57z"/>
	<ellipse cx="132.84" cy="97.71" rx="7.03" ry="6.34"/>
	<ellipse cx="85.83" cy="97.71" rx="7.03" ry="6.34"/>
	<path d="M173.1,180.49c-1.42-0.54-2.28-1.85-2.13-3.24c0.39-3.32,0.92-6.66,0.93-6.68c0.65-4.14-2.5-7.98-7.08-8.63
		c-1.58-0.22-3.18-0.34-4.78-0.37c-1.03-4.95-1.58-9.47-1.82-11.73c1.06-0.98,2.06-2.02,2.99-3.1c2.62-3.22,4.69-6.77,6.16-10.54
		c0.49-1.26,0.89-2.45,1.2-3.52c1.07,0.47,2.2,0.83,3.36,1.07c1.53,0.32,3.1,0.48,4.68,0.48c10.04,0,19.79-6.47,24.31-16.65
		c0.27-0.6,0.74-1.59,1.34-2.85c11.58-24.32,13.83-34.31,8.57-38.2c-2.63-1.95-6.63-2.28-11.93-1.06
		c-0.63-10.62-3.8-31.32-18.8-45.95C162.92,12.8,142.77,5.45,118.5,7.04c-4.55,0.3-20.76,2.16-38.3,13.52
		c-16.55,10.72-28.23,26.4-33.78,45.35c-11.67,39.79,5.92,82.13,11.58,94.18c0.86,1.85,2.87,3.06,5.1,3.06
		c0.36,0,0.73-0.03,1.08-0.1c2.59-0.44,4.47-2.46,4.51-4.83c0.12-5.51,0.38-10.65,0.76-15.47c6.52,11.79,20.72,22.96,43.45,22.96
		c1.45,0,2.94-0.05,4.46-0.15c0.62,1.79,1.09,3.62,1.4,5.47c-0.89-0.58-1.85-1.07-2.87-1.46c-2.63-0.99-5.65-0.67-7.95,0.86
		c-2.51,1.73-3.85,4.51-3.54,7.34c0.13,1.24,0.22,2.56,0.31,4.09c0.06,0.79,0.11,1.62,0.17,2.49c0.13,1.85-0.99,3.58-2.83,4.39
		c-20.58,9.13-34.1,19.95-41.33,33.1c-5.69,10.32,0.05,16.02,3.99,18.51c11.19,7.01,30.66,10.58,57.88,10.58
		c47.37,0,72.85-13.29,75.62-14.81l1.16-0.64c5.16-2.85,13.81-7.57,11.81-15.58C207.4,204.53,190.31,186.85,173.1,180.49z
		 M189.63,63.38c1.03,4.8,1.62,9.68,1.77,14.57c-0.84,0.34-1.71,0.71-2.61,1.11c-2.53,1.14-5.14,2.46-7.74,3.9
		c-5.33-6.46-14.1-10.93-22.25-11.42c0.22-10.74-5.37-16.04-11.34-18.64c8.44-2.6,18.82-2.85,27.39-0.34
		c5.08,1.45,11.71,4.53,14.78,10.78V63.38z M174.73,86.78c-3.71,2.39-7.24,5.01-10.57,7.83c-0.06,0.06-0.16,0.07-0.23,0.03
		c-3.88-2.73-7.45-8.45-5.92-16.28c5.9,0.15,12.62,3.55,16.72,8.38V86.78z M61.41,149.15c-6.78-16.99-16.83-50.23-7.66-81.48
		c5.18-17.64,15.56-31.62,30.87-41.53c12.66-8.2,26.08-11.71,34.43-12.25c2.02-0.13,4-0.2,5.95-0.2c19.38,0,35.23,6.6,49.5,20.49
		c4.42,4.4,7.95,9.48,10.43,14.98c-2.45-1.3-5.05-2.35-7.76-3.13c-12.02-3.5-26.58-2.52-37.33,2.32c-0.75-0.95-1.43-2.01-2.15-3.13
		c-2.2-3.42-4.95-7.72-10.97-9.08c-2.03-0.46-4.1,0.65-4.61,2.49c-0.08,0.27-0.11,0.55-0.11,0.83c0,11.75-6.47,15.51-16.26,21.21
		c-8.86,5.14-19.86,11.56-28.68,25.87C67.97,101.3,62.81,121.84,61.41,149.15z M74.32,135.53c-1.27-3.7-2.13-7.51-2.57-11.36
		c7.06-39.67,24.6-49.89,38.11-57.76c8.68-5.05,16.95-9.86,19.17-20.82c0.66,0.84,1.33,1.85,2.1,3.05c2.24,3.49,5.02,7.84,11.16,9.7
		c4.86,1.5,11.01,5.07,8.26,18.65c-2.18,10.9,3.06,19.04,8.69,23.03c3.04,2.11,7.33,1.91,10.12-0.46
		c6.8-5.74,14.47-10.58,22.78-14.37c8.61-3.85,12.66-3.76,13.64-3.42c0.2,0.72,0.53,3.71-2.89,12.87
		c-2.42,6.48-8.74,19.75-9.04,20.43c-3.28,7.39-11.29,13.9-20.25,12.05c-1.95-0.42-3.33-1.32-5.37-2.77
		c-1.65-1.17-4.04-0.91-5.33,0.58c-0.45,0.52-0.73,1.14-0.79,1.79c-0.36,2.46-1.01,4.87-1.94,7.21c-1.21,3.13-2.93,6.08-5.1,8.76
		c-1.01,1.24-4.63,4.75-6.78,5.9c-1.81,0.95-2.43,3.05-1.37,4.68c0.85,1.32,2.58,1.97,4.22,1.6c0.3,2.11,0.7,4.61,1.23,7.28
		c-6.07,0.95-11.8,3.22-16.69,6.6c-3.65,2.55-6.67,5.75-8.89,9.4c0.13-4.58-0.51-9.16-1.9-13.57c3.54-0.71,7.03-1.65,10.43-2.79
		c1.97-0.66,2.97-2.63,2.23-4.41c-0.73-1.77-2.92-2.68-4.88-2.01c-4.31,1.47-8.78,2.54-13.33,3.2
		C85.83,161.82,75.96,139.97,74.32,135.53L74.32,135.53z M69.05,234.72c-2.53-1.61-4.73-4.04-1.53-9.85
		c8.61-15.68,25.74-24.64,37.88-30.02c4.6-2.03,7.39-6.37,7.07-10.98c-0.06-0.86-0.36-5.4-0.49-6.75c-0.08-0.45,0.1-0.91,0.48-1.22
		c0.19-0.05,0.38-0.05,0.57,0c3.03,1.14,10.31,6.46,9.4,16.09c-0.19,1.1-0.68,2.15-1.43,3.03c-5.85,7.79-14.94,27.4-15.82,48.52
		C88.62,242.35,76.51,239.41,69.05,234.72z M195.43,229.58l-1.2,0.66c-9.3,5.14-34.86,13.8-71.65,13.8c-3.42,0-6.71-0.06-9.86-0.17
		c0.8-19.69,9.18-37.89,14.55-45.05c2.25-3.07,2.78-5.66,2.76-6.36c0.06-0.31,0.1-0.64,0.13-0.96c0.73-7.22,4.28-13.25,10.23-17.45
		c6.62-4.56,15.01-6.51,23.25-5.39c0.46,0.05,0.79,0.43,0.73,0.85c0,0,0,0.01,0,0.01c0,0.14-0.56,3.5-0.96,6.96
		c-0.49,4.4,2.27,8.57,6.79,10.27c14.93,5.54,30.3,21.37,33.54,34.58c0.77,3.01-3.32,5.53-8.32,8.28L195.43,229.58z"/>
</g>
</svg>
