<?xml version="1.0" encoding="utf-8"?>
<!-- Generator: Adobe Illustrator 24.2.3, SVG Export Plug-In . SVG Version: 6.00 Build 0)  -->
<svg version="1.1" xmlns="http://www.w3.org/2000/svg" xmlns:xlink="http://www.w3.org/1999/xlink" x="0px" y="0px"
	 viewBox="0 0 209.52 256" style="enable-background:new 0 0 209.52 256;" xml:space="preserve">
<style type="text/css">
	.st0{display:none;}
	.st1{fill:none;stroke:#515151;stroke-width:8;stroke-miterlimit:10;}
	.st2{fill:#BF1666;stroke:#515151;stroke-width:8;stroke-linejoin:bevel;stroke-miterlimit:10;}
	.st3{fill:none;stroke:#BF1666;stroke-width:8;stroke-miterlimit:10;}
	.st4{fill:none;stroke:#6F6F6F;stroke-width:8;stroke-miterlimit:10;}
	.st5{fill:#BF1666;}
	.st6{fill:#333333;}
	.st7{fill:none;}
	.st8{fill:none;stroke:#BF1666;stroke-width:5;stroke-linecap:round;stroke-miterlimit:10;}
	.st9{fill:#515151;}
	.st10{fill:none;stroke:#515151;stroke-width:3;stroke-miterlimit:10;}
	.st11{fill:#BF1666;stroke:#515151;stroke-width:8;stroke-linecap:round;stroke-linejoin:round;stroke-miterlimit:10;}
	.st12{fill:#BF1666;stroke:#515151;stroke-width:8;stroke-linecap:round;stroke-miterlimit:10;}
	.st13{fill:none;stroke:#515151;stroke-width:8;stroke-linecap:round;stroke-linejoin:bevel;stroke-miterlimit:10;}
	.st14{fill:none;stroke:#515151;stroke-width:8;stroke-linecap:round;stroke-miterlimit:10;}
	.st15{fill:none;stroke:#515151;stroke-width:5;stroke-miterlimit:10;}
	.st16{fill:none;stroke:#515151;stroke-width:4;stroke-miterlimit:10;}
	.st17{fill:#515151;stroke:#515151;stroke-width:2;stroke-miterlimit:10;}
	.st18{fill:none;stroke:#515151;stroke-miterlimit:10;}
	.st19{fill:#636363;}
</style>
<g id="Camada_1" class="st0">
</g>
<g id="Camada_2">
	<rect x="-596.88" y="-342.54" class="st0" width="868.32" height="630.72"/>
	<path class="st11" d="M41.57,141.71c0,0-2.46,107.59-6.99,110.47l31.18-0.31l-0.62-56.47"/>
	<path class="st11" d="M126.25,175.05c-12.7-2.85-20.93-6.24-20.93-6.24c-8.04,32.93,5.97,83.05,5.97,83.05l28.73,0.31
		c-10.34-22.07-13.29-51.8-13.74-75.23"/>
	<path class="st1" d="M11.99,76.7l53.1,116.87c1.78,3.92,5.7,6.44,10.01,6.44h0c3.4,0,6.61-1.58,8.69-4.27L167.38,87.7
		c3.6-4.66,2.89-11.3-1.59-15.12c-19.64-16.7-75.39-53.29-149.4-9.88C11.55,65.53,9.67,71.6,11.99,76.7z"/>
	<path class="st1" d="M163.33,70.54c0,0-58.25,76.65-87.08,105.87c-5.42,4.17-14.08,4.61-16.99,4.3"/>
	<ellipse class="st9" cx="51.37" cy="83.93" rx="4.46" ry="8.93"/>
	<ellipse class="st9" cx="90.34" cy="83.93" rx="4.46" ry="8.93"/>
	<path class="st12" d="M61.12,15.86C69.63,8.64,82.95,3.99,97.92,3.99c25.71,0,46.55,13.71,46.55,30.61
		c0,6.94-3.51,13.34-9.42,18.47"/>
	<path class="st13" d="M117.85,46.93c0,0-38.63-38.34-80.3-31.48C28.27,16.98,10.31,30.17,35.39,52"/>
	<path class="st14" d="M156.13,102.24c0,0,79.28,13.03,35.49,54.5c-23.21,21.98-47.15,20.19-65.37,18.31"/>
	<path class="st14" d="M27.09,109.92c0,0-59.01,31.78,13.29,55"/>
	<path class="st9" d="M68.18,256c1.31-1.71,2.05-3.57,2.05-5.53c0-8.14-12.55-14.74-28.03-14.74s-28.03,6.6-28.03,14.74
		c0,1.96,0.73,3.82,2.05,5.53H68.18z"/>
	<path class="st9" d="M161.28,256c1.31-1.71,2.05-3.57,2.05-5.53c0-8.14-12.55-14.74-28.03-14.74s-28.03,6.6-28.03,14.74
		c0,1.96,0.73,3.82,2.05,5.53H161.28z"/>
</g>
</svg>
