<svg
        xmlns="http://www.w3.org/2000/svg"
        xmlns:xlink="http://www.w3.org/1999/xlink"
        version="1.1" x="0px" y="0px" viewBox="0 0 64 64" style="enable-background:new 0 0 64 64;" xml:space="preserve"
>
    <g>
        <g>
            <g>
                <path d="M25.0898304,43.1889839c-7.7197266,0-14-6.2802734-14-14v-5.1298828c0-0.5522461,0.4472656-1,1-1s1,0.4477539,1,1     v5.1298828c0,6.6171875,5.3828125,12,12,12s11.9999981-5.3828125,11.9999981-12v-3c0-0.5522461,0.4472656-1,1-1s1,0.4477539,1,1     v3C39.0898285,36.9087105,32.8095551,43.1889839,25.0898304,43.1889839z" fill="#515151"/>
            </g>
            <g>
                <path d="M23.0898304,27.1889839c-0.2373047,0-0.4726563-0.0849609-0.6572266-0.246582     c-0.2832031-0.2470703-0.4042969-0.6318359-0.3125-0.9960938l0.5332031-2.1333008     c-3.1396484,1.0854492-9.5683594,2.7490234-13.7568359,0.0268555c-2.5263672-1.6416016-3.8066406-4.5522461-3.8066406-8.650878     c0-0.3081055,0.1416016-0.5986328,0.3847656-0.7880859s0.5605469-0.2563477,0.8574219-0.1821289     c0.0361328,0.0097656,3.7109375,0.8759766,7.3105469-0.9243164c0.8300781-0.4150391,1.5654297-1.137207,2.34375-1.9018555     c2.6689453-2.621582,5.9863281-5.875977,16.2040997-1.2568359c1.1757813-0.2583008,4.8515625-0.8554688,7.4111328,1.0883789     c1.6513672,1.2529297,2.4882813,3.2602539,2.4882813,5.9648428c0,5.2729492-3.0693359,9.4257813-3.2001953,9.6000977     c-0.1884766,0.2519531-0.4853516,0.3999023-0.7998047,0.3999023c-2.7314453,0-5.140625-4.3662109-6.3369122-6.9780273     c-1.5380859,1.9863281-4.5966797,5.4282227-8.2919922,6.9067383     C23.340807,27.1655464,23.2148304,27.1889839,23.0898304,27.1889839z M38.0908051,26.1875191h0.0097656H38.0908051z      M31.9794788,17.1894722c0.0341778,0,0.0683575,0.0014648,0.1025372,0.0048828     c0.3730469,0.0385742,0.6933594,0.2822266,0.8291016,0.6318359c1.0488281,2.6943359,3.1591797,6.5605469,4.7197266,7.2539063     c0.7470703-1.1821289,2.4589844-4.284668,2.4589844-7.8911133c0-2.0458975-0.5712891-3.5170889-1.6972656-4.3715811     c-1.8574219-1.4106445-4.9853516-0.9584961-6.0341797-0.6650391c-0.2285156,0.0629883-0.4736309,0.043457-0.6874981-0.0551758     c-9.2167969-4.2534184-11.7919922-1.7246094-14.2832031,0.722168c-0.8544922,0.8398438-1.7382813,1.7080078-2.8505859,2.2641602     c-2.9121094,1.4560537-5.7988281,1.4506826-7.4052734,1.2827139c0.2070313,2.7509766,1.1640625,4.6982422,2.8544922,5.7963867     c4.6972656,3.0537109,13.6074219-0.8481445,13.6972656-0.887207c0.3486328-0.1552734,0.7578125-0.0981445,1.0498047,0.1479492     s0.4189377,0.637207,0.3261719,1.0083008l-0.4638672,1.855957c3.7324219-2.3608398,6.5126953-6.59375,6.5449219-6.6430664     C31.3261585,17.3589058,31.6435413,17.1894722,31.9794788,17.1894722z" fill="#515151"/>
            </g>
            <g>
                <path d="M12.0898304,33.1889839h-1.2617188c-2.0615234,0-3.7382813-1.6772461-3.7382813-3.7387695v-0.5224609     c0-2.0615234,1.6767578-3.7387695,3.7382813-3.7387695h1.2617188c0.5527344,0,1,0.4477539,1,1v6     C13.0898304,32.74123,12.6425648,33.1889839,12.0898304,33.1889839z M10.8281116,27.1889839     c-0.9580078,0-1.7382813,0.7797852-1.7382813,1.7387695v0.5224609c0,0.9589844,0.7802734,1.7387695,1.7382813,1.7387695     h0.2617188v-4H10.8281116z" fill="#515151"/>
            </g>
            <g>
                <path d="M39.3515472,33.1889839h-1.2617188c-0.5527344,0-1-0.4477539-1-1v-6c0-0.5522461,0.4472656-1,1-1h1.2617188     c2.0615234,0,3.7382813,1.6772461,3.7382813,3.7387695v0.5224609     C43.0898285,31.5117378,41.4130707,33.1889839,39.3515472,33.1889839z M39.0898285,31.1889839h0.2617188     c0.9580078,0,1.7382813-0.7797852,1.7382813-1.7387695v-0.5224609c0-0.9589844-0.7802734-1.7387695-1.7382813-1.7387695     h-0.2617188V31.1889839z" fill="#515151"/>
            </g>
            <g>
                <ellipse cx="19.0898304" cy="28.1889839" rx="1" ry="2" fill="#515151"/>
            </g>
            <g>
                <ellipse cx="31.0898304" cy="28.1889839" rx="1" ry="2" fill="#515151"/>
            </g>
            <g>
                <path d="M7.0898304,56.1889839c-0.1171875,0-0.2353516-0.0205078-0.3515625-0.0634766     c-0.5166016-0.1943359-0.7783203-0.7705078-0.5849609-1.2880859l1.2265625-3.2695313     c1.2167969-3.2441406,4.0888672-5.6503906,7.4970703-6.2792969l5.0537109-0.9316406v-2.8515625c0-0.5527344,0.4472656-1,1-1     s1,0.4472656,1,1v3.6835938c0,0.4824219-0.3447266,0.8955078-0.8183594,0.9833984l-5.8720703,1.0830078     c-2.7216797,0.5029297-5.0166016,2.4238281-5.9873047,5.0146484l-1.2265625,3.2705078     C7.8759632,55.9419136,7.4941273,56.1889839,7.0898304,56.1889839z" fill="#515151"/>
            </g>
            <g>
                <path d="M43.0898285,56.1889839c-0.4052734,0-0.7861328-0.2470703-0.9365234-0.6494141l-1.8701172-4.9902344     c-0.1933594-0.5166016,0.0683594-1.0927734,0.5859375-1.2871094c0.5136719-0.1923828,1.09375,0.0673828,1.2871094,0.5859375     l1.8701172,4.9902344c0.1933594,0.5166016-0.0683594,1.0927734-0.5859375,1.2871094     C43.3251801,56.1684761,43.207016,56.1889839,43.0898285,56.1889839z" fill="#515151"/>
            </g>
            <g>
                <path d="M36.3212738,47.4887886c-0.0595703,0-0.1210938-0.0048828-0.1816406-0.0166016l-7.0703106-1.2998047     c-0.4746094-0.0869141-0.8193359-0.5009766-0.8193359-0.9833984v-3.6796875c0-0.5527344,0.4472656-1,1-1s1,0.4472656,1,1     v2.8466797l6.2509747,1.1494141c0.5429688,0.0996094,0.9023438,0.6210938,0.8027344,1.1640625     C37.2148285,47.1518745,36.7949066,47.4887886,36.3212738,47.4887886z" fill="#515151"/>
            </g>
            <g>
                <path d="M34.3837738,54.4223824c-0.4726563,0-0.8896484-0.1757813-1.2070313-0.4941406     c-0.4257813-0.4267578-0.5957031-1.0322266-0.4541016-1.6181641l1.8427734-5.3427734     c0.0498047-0.1425781,0.1308594-0.2724609,0.2382813-0.3798828l15.1679688-15.1674805     c0.390625-0.390625,1.0234375-0.390625,1.4140625,0s0.390625,1.0234375,0,1.4140625L36.3808441,47.838398l-1.5302734,4.4228516     l4.4238281-1.5283203l15.0048828-15.0126953c0.390625-0.390625,1.0234375-0.390625,1.4140625,0s0.390625,1.0234375,0,1.4140625     L40.5253754,52.3100777c-0.1074219,0.1074219-0.2373047,0.1894531-0.3818359,0.2382813l-5.2568359,1.8105469     C34.7138519,54.4018745,34.5449066,54.4223824,34.3837738,54.4223824z" fill="#bf1666"/>
            </g>
            <g>
                <path d="M39.8183441,52.6030464c-0.2558594,0-0.5117188-0.0976563-0.7070313-0.2929688l-4.3076172-4.3085938     c-0.390625-0.390625-0.390625-1.0234375,0-1.4140625s1.0234375-0.390625,1.4140625,0l4.3076172,4.3085938     c0.390625,0.390625,0.390625,1.0234375,0,1.4140625C40.3300629,52.5053902,40.0742035,52.6030464,39.8183441,52.6030464z" fill="#bf1666"/>
            </g>
            <g>
                <path d="M54.9863129,37.4272652c-0.2558594,0-0.5117188-0.0976563-0.7070313-0.2929688l-4.3144531-4.3149414     c-0.390625-0.390625-0.390625-1.0234375,0-1.4140625l2.0185547-2.0185547     c1.5878906-1.5878906,4.1640625-1.5957031,5.7441406-0.015625c0.7666016,0.7661133,1.1865234,1.7861328,1.1826172,2.8725586     c-0.0039063,1.0839844-0.4287109,2.1035156-1.1972656,2.8720703l-2.0195313,2.0185547     C55.4980316,37.3296089,55.2421722,37.4272652,54.9863129,37.4272652z M52.0859222,32.1123238l2.9003906,2.9008789     l1.3125-1.3115234c0.3925781-0.3925781,0.609375-0.9125977,0.6113281-1.4648438     c0.0019531-0.5493164-0.2099609-1.0649414-0.5966797-1.4516602c-0.7988281-0.7998047-2.1074219-0.7924805-2.9160156,0.015625     L52.0859222,32.1123238z" fill="#bf1666"/>
            </g>
            <g>
                <path d="M40.6025238,47.4966011c-0.2558594,0-0.5117188-0.0976563-0.7070313-0.2929688     c-0.390625-0.390625-0.390625-1.0234375,0-1.4140625l12.2265625-12.2265625c0.390625-0.390625,1.0234375-0.390625,1.4140625,0     s0.390625,1.0234375,0,1.4140625L41.3095551,47.2036324C41.1142426,47.3989449,40.8583832,47.4966011,40.6025238,47.4966011z" fill="#bf1666"/>
            </g>
        </g>
    </g>
</svg>
