<svg xmlns="http://www.w3.org/2000/svg" xmlns:xlink="http://www.w3.org/1999/xlink" version="1.1" x="0px" y="0px" viewBox="0 0 64 80" style="enable-background:new 0 0 64 64;" xml:space="preserve">
    <g>
        <g>
            <g>
                <path d="M40.0524216,31.0230827c-0.2368164,0-0.4750977-0.0839844-0.6660156-0.2543945     c-0.4116211-0.3676758-0.4472656-1-0.0791016-1.4121094l7.8901367-8.8300781     c0.6508789-0.6455078,0.9858398-1.4545898,0.9858398-2.3232422c0-0.8681641-0.3364258-1.6821289-0.9472656-2.2924805     c-1.2646484-1.2578125-3.3183594-1.2583008-4.5761719-0.0004883l-9.012207,7.8085938     c-0.4179688,0.362793-1.0488281,0.3154297-1.4106445-0.1010742c-0.3618164-0.4174805-0.3164063-1.0493164,0.1010742-1.4106445     l8.9599609-7.7597656c1.9833984-1.9863281,5.3032227-1.9868164,7.3500977,0.046875     c0.9907227,0.9897461,1.5351563,2.3066406,1.5351563,3.7089844c0,1.4077148-0.5458984,2.722168-1.5375977,3.7011719     l-7.847168,8.7851563C40.6012497,30.9102898,40.3273239,31.0230827,40.0524216,31.0230827z" fill="#515151"/>
            </g>
            <g>
                <path d="M26.5656052,43.5709343c-0.3051758,0-0.6064453-0.1391602-0.8027344-0.402832     c-0.3300781-0.4428711-0.2387695-1.0693359,0.2045898-1.3989258l8.0239258-6.0258789     c0.4404297-0.3344727,1.0673828-0.246582,1.4008789,0.1938477s0.246582,1.0678711-0.1938477,1.4008789l-8.0366211,6.034668     C26.9825974,43.5064812,26.7731247,43.5709343,26.5656052,43.5709343z" fill="#515151"/>
            </g>
            <g>
                <path d="M20.5836716,37.5806999c-0.1728516,0-0.3481445-0.0449219-0.5083008-0.1391602     c-0.4750977-0.28125-0.6328125-0.8945313-0.3515625-1.3701172l0.6708984-1.1342773     c1.5283203-2.5839844,3.3798828-4.9702148,5.5029297-7.0932617c0.390625-0.390625,1.0234375-0.390625,1.4140625,0     s0.390625,1.0234375,0,1.4140625c-2.0043945,2.0043945-3.7524414,4.2578125-5.1953125,6.6977539l-0.6708984,1.1342773     C21.2584763,37.405407,20.9254684,37.5806999,20.5836716,37.5806999z" fill="#515151"/>
            </g>
            <g>
                <path d="M18.6344528,51.4913445c-2.8720703,0-5.7036133-1.1865234-7.4003906-2.2661133     c-0.340332-0.2167969-0.5175781-0.6171875-0.4482422-1.0151367c0.0537109-0.309082,1.347168-7.5922852,4.0205078-10.2651367     c2.8662109-2.8666992,7.5288086-2.8657227,10.3950195,0c2.8486328,2.8491211,2.8652344,7.4741211,0.050293,10.3442383     C23.4371872,50.6715202,21.0216599,51.4913445,18.6344528,51.4913445z M12.8859177,47.8717155     c1.8349609,0.9931641,7.519043,3.5473633,10.8085938-0.8388672c0.0283203-0.0375977,0.059082-0.0737305,0.0927734-0.1069336     c2.0854492-2.0864258,2.0854492-5.4804688,0-7.5668945c-2.0874023-2.0874023-5.4814453-2.0854492-7.5668945,0     C14.5558395,41.023571,13.3551559,45.5694695,12.8859177,47.8717155z" fill="#515151"/>
            </g>
            <g>
                <path d="M26.5641403,43.5631218c-0.3056641,0-0.6074219-0.1396484-0.8037109-0.4038086     c-0.3295898-0.4433594-0.2368164-1.0698242,0.206543-1.3989258l3.050293-2.2646484l-6.0869141-6.9643555     c-0.3632813-0.4160156-0.3208008-1.0478516,0.0947266-1.4111328c0.4169922-0.362793,1.0488281-0.3203125,1.4111328,0.0947266     l6.7998047,7.7797852c0.1835938,0.2104492,0.2709961,0.4873047,0.2412109,0.7651367     c-0.0297852,0.2773438-0.1738281,0.5297852-0.3979492,0.6958008l-3.9199219,2.9101563     C26.9801559,43.499157,26.7711716,43.5631218,26.5641403,43.5631218z" fill="#515151"/>
            </g>
            <g>
                <path d="M20.5822067,37.5831413c-0.1723633,0-0.347168-0.0444336-0.5068359-0.1386719     c-0.4755859-0.2802734-0.6342773-0.8935547-0.3535156-1.3691406l0.7900391-1.340332     c0.28125-0.4750977,0.8925781-0.6337891,1.3691406-0.3535156c0.4755859,0.2802734,0.6342773,0.8935547,0.3535156,1.3691406     l-0.7900391,1.340332C21.257988,37.4073601,20.9244919,37.5831413,20.5822067,37.5831413z" fill="#515151"/>
            </g>
            <g>
                <path d="M43.7047653,46.6510124c-0.2558594,0-0.5117188-0.0976563-0.7070313-0.2929688     c-0.390625-0.390625-0.390625-1.0234375,0-1.4140625l5.9897461-5.9902344c0.390625-0.390625,1.0234375-0.390625,1.4140625,0     s0.390625,1.0234375,0,1.4140625l-5.9897461,5.9902344C44.2164841,46.5533562,43.9606247,46.6510124,43.7047653,46.6510124z" fill="#bf1666"/>
            </g>
            <g>
                <g>
                    <path d="M51.2457809,49.2052116c-0.1582031,0-0.3178711-0.019043-0.4765625-0.0571289l-7.3911133-2.5522461      c-0.1435547-0.0493164-0.2734375-0.1308594-0.3803711-0.237793l-22.0898438-22.090332      c-0.390625-0.390625-0.390625-1.0234375,0-1.4140625s1.0234375-0.390625,1.4140625,0l21.9272461,21.9277344l7.0820313,2.449707      l-2.5029297-7.0224609L26.8878708,18.2779655c-0.390625-0.3901367-0.390625-1.0234375,0-1.4140625      c0.3896484-0.390625,1.0234375-0.390625,1.4140625,0l22.0996094,22.0898438      c0.1074219,0.1074219,0.1889648,0.237793,0.2382813,0.3813477l2.5175781,7.3095703      c0.190918,0.7744141-0.0073242,1.4780273-0.5043945,1.9741211      C52.2716599,49.0001335,51.7677536,49.2052116,51.2457809,49.2052116z" fill="#bf1666"/>
                </g>
                <g>
                    <path d="M21.594902,24.5709343c-0.2558594,0-0.5117188-0.0976563-0.7070313-0.2929688l-2.8071289-2.8071289      c-0.9951172-0.9946289-1.5458984-2.3154297-1.5507813-3.71875c-0.0048828-1.4057617,0.5380859-2.7255859,1.5292969-3.7167969      c2.0439453-2.0439453,5.3789063-2.0341797,7.4355469,0.0214844l2.8071289,2.8071289      c0.390625,0.390625,0.390625,1.0234375,0,1.4140625l-6,6C22.1066208,24.473278,21.8507614,24.5709343,21.594902,24.5709343z       M21.7570114,14.5074577c-0.8291016,0-1.6552734,0.3139648-2.2836914,0.9418945      c-0.6113281,0.6113281-0.9462891,1.4267578-0.9433594,2.2958984c0.0029297,0.871582,0.3457031,1.6923828,0.9648438,2.3115234      l2.1000977,2.1000977l4.5859375-4.5859375l-2.1000977-2.1000977      C23.438652,14.8292351,22.5963669,14.5074577,21.7570114,14.5074577z" fill="#bf1666"/>
                </g>
                <g>
                    <path d="M42.594902,39.5709343c-0.2558594,0-0.5117188-0.0976563-0.7070313-0.2929688l-18-18      c-0.390625-0.390625-0.390625-1.0234375,0-1.4140625s1.0234375-0.390625,1.4140625,0l18,18      c0.390625,0.390625,0.390625,1.0234375,0,1.4140625C43.1066208,39.473278,42.8507614,39.5709343,42.594902,39.5709343z" fill="#bf1666"/>
                </g>
            </g>
            <g>
                <path d="M47.5260353,23.1530437c0.0999985-0.3299999,0.0099983-0.7000008-0.25-0.960001l-0.8300018-0.8299999     l-4.6799965-4.6800003l-0.6500015-0.6399994c-0.3899994-0.3899994-1.0200005-0.3899994-1.4099998,0     s-0.3899994,1.0200005,0,1.4099998l0.5400009,0.5500011l4.8599968,4.8599987l0.75,0.75     c0.2000008,0.1900005,0.4600029,0.2900009,0.7100029,0.2900009c0.1199989,0,0.2399979-0.0200005,0.3499985-0.0599995     L47.5260353,23.1530437z" fill="#515151" />
            </g>
        </g>
    </g>
</svg>
