<?xml version="1.0" encoding="utf-8"?>
<!-- Generator: Adobe Illustrator 24.2.3, SVG Export Plug-In . SVG Version: 6.00 Build 0)  -->
<svg version="1.1" xmlns="http://www.w3.org/2000/svg" xmlns:xlink="http://www.w3.org/1999/xlink" x="0px" y="0px"
	 viewBox="0 0 171.86 257.45" style="enable-background:new 0 0 171.86 257.45;" xml:space="preserve">
<style type="text/css">
	.st0{display:none;}
	.st1{fill:none;stroke:#515151;stroke-width:8;stroke-miterlimit:10;}
	.st2{fill:#BF1666;stroke:#515151;stroke-width:8;stroke-linejoin:bevel;stroke-miterlimit:10;}
	.st3{fill:none;stroke:#BF1666;stroke-width:8;stroke-miterlimit:10;}
	.st4{fill:none;stroke:#6F6F6F;stroke-width:8;stroke-miterlimit:10;}
	.st5{fill:#BF1666;}
	.st6{fill:#333333;}
	.st7{fill:none;}
	.st8{fill:none;stroke:#BF1666;stroke-width:5;stroke-linecap:round;stroke-miterlimit:10;}
	.st9{fill:#515151;}
	.st10{fill:none;stroke:#515151;stroke-width:3;stroke-miterlimit:10;}
	.st11{fill:#BF1666;stroke:#515151;stroke-width:8;stroke-linecap:round;stroke-linejoin:round;stroke-miterlimit:10;}
	.st12{fill:#BF1666;stroke:#515151;stroke-width:8;stroke-linecap:round;stroke-miterlimit:10;}
	.st13{fill:none;stroke:#515151;stroke-width:8;stroke-linecap:round;stroke-linejoin:bevel;stroke-miterlimit:10;}
	.st14{fill:none;stroke:#515151;stroke-width:8;stroke-linecap:round;stroke-miterlimit:10;}
	.st15{fill:none;stroke:#515151;stroke-width:5;stroke-miterlimit:10;}
	.st16{fill:none;stroke:#515151;stroke-width:4;stroke-miterlimit:10;}
	.st17{fill:#515151;stroke:#515151;stroke-width:2;stroke-miterlimit:10;}
	.st18{fill:none;stroke:#515151;stroke-miterlimit:10;}
	.st19{fill:#636363;}
</style>
<g id="Camada_1" class="st0">
</g>
<g id="Camada_2">
	<rect x="-590.84" y="-45.31" class="st0" width="868.32" height="630.72"/>
	<path class="st1" d="M137.86,226.26l20.81-7.79c2.26-0.85,4.78,0.3,5.63,2.56l3.32,8.88c0.58,1.56-0.21,3.3-1.77,3.88l-28.09,10.52
		l-3.66-9.79C132.86,231.2,134.54,227.5,137.86,226.26z"/>
	<polyline class="st2" points="134.98,227.34 150.32,221.6 156.24,237.39 132.63,246.23 	"/>
	<g>
		<path class="st5" d="M23.83,236.14c0,0-14.14,13.09-20.95,7.07c0,0-5.5,3.14-1.31,3.93c4.19,0.79,14.67,0,14.67,0l5.76,0.35
			l1.83-0.59V236.14z"/>
		<path class="st9" d="M26.63,248.92h1.8c1.29,0,2.34-1.05,2.34-2.34v-10.41c0-1.29-1.05-2.34-2.34-2.34h-1.8
			c-1.29,0-2.34,1.05-2.34,2.34v10.41C24.29,247.87,25.35,248.92,26.63,248.92z"/>
		<path class="st1" d="M93.56,229.18l-54.92,4.54c-1.13,0.09-2,1.04-2,2.17V246c0,1.13,0.87,2.07,2,2.17l49.53,4.1l9.45,0.78v-18.83
			L93.56,229.18"/>
	</g>
	<path class="st1" d="M51.52,232.65v-65.84c0-6.37,5.16-11.53,11.53-11.53h58.89c6.37,0,11.53,5.16,11.53,11.53v75.11
		c0,6.37-5.16,11.53-11.53,11.53H63.05c-3.48,0-6.6-1.54-8.72-3.98"/>
	<path class="st9" d="M121.49,146.59H63.5c-1.86,0-3.37-1.52-3.37-3.37v-6.2c0-1.86,1.52-3.37,3.37-3.37h57.99
		c1.86,0,3.37,1.52,3.37,3.37v6.2C124.86,145.08,123.34,146.59,121.49,146.59z"/>
	<g>
		<polygon class="st9" points="57.53,75.77 58.2,96.49 66.96,93.62 		"/>
		<polygon class="st15" points="96.82,211.29 89.84,213.58 63.85,114.31 70.84,112.03 		"/>
		<polygon class="st16" points="59.76,89.15 60.18,100.39 62.22,108.19 69.2,105.91 67.16,98.1 62.09,88.39 		"/>
		<line class="st17" x1="86.85" y1="202.15" x2="93.9" y2="200.12"/>
	</g>
	<g>
		<polyline class="st1" points="64.31,230.62 120.06,5.41 146.13,12.96 92.61,229.18 		"/>
		<line class="st18" x1="128.62" y1="27.27" x2="141.65" y2="31.05"/>
		<line class="st18" x1="126.19" y1="37.08" x2="139.23" y2="40.85"/>
		<line class="st18" x1="123.77" y1="46.88" x2="136.8" y2="50.65"/>
		<line class="st18" x1="121.34" y1="56.68" x2="134.38" y2="60.45"/>
		<line class="st18" x1="118.91" y1="66.48" x2="131.95" y2="70.25"/>
		<line class="st18" x1="116.49" y1="76.28" x2="129.52" y2="80.05"/>
		<line class="st18" x1="114.06" y1="86.08" x2="127.1" y2="89.85"/>
		<line class="st18" x1="111.64" y1="95.88" x2="124.67" y2="99.65"/>
		<line class="st18" x1="109.21" y1="105.68" x2="122.25" y2="109.45"/>
		<line class="st18" x1="106.78" y1="115.48" x2="119.82" y2="119.25"/>
		<line class="st18" x1="104.36" y1="125.28" x2="117.39" y2="129.05"/>
		<line class="st18" x1="101.93" y1="135.08" x2="114.97" y2="138.85"/>
		<line class="st18" x1="99.51" y1="144.88" x2="112.54" y2="148.65"/>
		<line class="st18" x1="97.08" y1="154.68" x2="110.12" y2="158.45"/>
		<line class="st18" x1="94.65" y1="164.48" x2="107.69" y2="168.25"/>
		<line class="st18" x1="92.23" y1="174.28" x2="105.27" y2="178.05"/>
		<line class="st18" x1="89.8" y1="184.08" x2="102.84" y2="187.85"/>
		<line class="st18" x1="87.38" y1="193.88" x2="100.41" y2="197.65"/>
		<line class="st18" x1="84.95" y1="203.68" x2="97.99" y2="207.45"/>
		<line class="st18" x1="82.53" y1="213.48" x2="95.56" y2="217.25"/>
		<line class="st18" x1="80.1" y1="223.28" x2="93.14" y2="227.05"/>
	</g>
	<g>
		<g>
			<polygon class="st1" points="90.28,224.62 88.71,224.62 78.81,56.24 96.15,56.24 			"/>
			<line class="st1" x1="79.69" y1="71.29" x2="95.62" y2="71.29"/>
		</g>
		<path class="st9" d="M101.54,21.56l-0.61,5.09l0.3-5.09h-1.19l-3.15,9.57c0,0-0.31-4.55-0.66-9.57H89.2l-0.69,7.18
			c0,0-0.54-3.21-1.21-7.18h-3.59L83.48,31.9l-0.39-10.34h-3.53L79,33.46c0,0-0.96-6.11-1.87-11.9H73.9l-0.08,3.87l-0.15-3.87h-2.38
			l3.65,28.83h25.06l3.65-28.83H101.54z"/>
		<g>
			<path class="st5" d="M75.64,37.96c6.96-2.63,11.84-5.03,11.84-5.03L90.76,28l6.13,2.91c-0.07-0.95-0.34-4.97-0.64-9.35H89.2
				l-0.69,7.18c0,0-0.54-3.21-1.21-7.18h-3.59L83.48,31.9l-0.39-10.34h-3.53L79,33.46c0,0-0.96-6.11-1.87-11.9H73.9l-0.08,3.87
				l-0.15-3.87h-2.38l2.18,17.2C74,38.59,74.7,38.32,75.64,37.96z"/>
			<polygon class="st5" points="103.66,21.56 101.54,21.56 100.93,26.64 101.23,21.56 100.04,21.56 96.95,30.94 102.16,33.42 			"/>
		</g>
	</g>
	<path class="st19" d="M120.38,134.51H64.1c-1.86,0-3.37,1.52-3.37,3.37c0,0.26,0.04,0.52,0.1,0.76c0.35-1.49,1.69-2.61,3.28-2.61
		h54.76c1.86,0,3.37,1.52,3.37,3.37v0c0,0.53-0.14,1.03-0.36,1.48c1.11-0.55,1.89-1.69,1.89-3.01
		C123.76,136.02,122.24,134.51,120.38,134.51z"/>
</g>
</svg>
